<?xml version="1.0" encoding="UTF-8" standalone="no"?>
<!-- Generator: Adobe Illustrator 19.0.0, SVG Export Plug-In . SVG Version: 6.00 Build 0)  -->

<svg
   xmlns:dc="http://purl.org/dc/elements/1.1/"
   xmlns:cc="http://creativecommons.org/ns#"
   xmlns:rdf="http://www.w3.org/1999/02/22-rdf-syntax-ns#"
   xmlns:svg="http://www.w3.org/2000/svg"
   xmlns="http://www.w3.org/2000/svg"
   xmlns:sodipodi="http://sodipodi.sourceforge.net/DTD/sodipodi-0.dtd"
   xmlns:inkscape="http://www.inkscape.org/namespaces/inkscape"
   version="1.1"
   id="Layer_1"
   x="0px"
   y="0px"
   viewBox="0 0 509.287 509.287"
   style="enable-background:new 0 0 509.287 509.287;"
   xml:space="preserve"
   inkscape:version="0.91 r13725"
   sodipodi:docname="video-player.svg"><metadata
     id="metadata4356"><rdf:RDF><cc:Work
         rdf:about=""><dc:format>image/svg+xml</dc:format><dc:type
           rdf:resource="http://purl.org/dc/dcmitype/StillImage" /></cc:Work></rdf:RDF></metadata><defs
     id="defs4354" /><sodipodi:namedview
     pagecolor="#ffffff"
     bordercolor="#666666"
     borderopacity="1"
     objecttolerance="10"
     gridtolerance="10"
     guidetolerance="10"
     inkscape:pageopacity="0"
     inkscape:pageshadow="2"
     inkscape:window-width="3102"
     inkscape:window-height="1752"
     id="namedview4352"
     showgrid="false"
     inkscape:zoom="2.6213464"
     inkscape:cx="260.82119"
     inkscape:cy="244.40343"
     inkscape:window-x="98"
     inkscape:window-y="48"
     inkscape:window-maximized="1"
     inkscape:current-layer="Layer_1" /><circle
     style="fill:#334d5c;fill-opacity:1"
     cx="254.644"
     cy="254.644"
     r="254.644"
     id="circle4306" /><path
     style="fill:#edc92f;fill-opacity:1"
     d="m 399.89192,124.23239 -290.49684,0 c -5.91511,0 -10.735067,4.81996 -10.735067,10.73507 l 0,239.01308 c 0,5.91511 4.819957,10.73507 10.735067,10.73507 l 290.49684,0 c 5.91511,0 10.73507,-4.81996 10.73507,-10.73507 l 0,-239.01308 c 0,-5.91511 -4.81996,-10.73507 -10.73507,-10.73507 z"
     id="path4308"
     inkscape:connector-curvature="0" /><rect
     x="118.37727"
     y="143.29254"
     style="fill:#e5ddd7;fill-opacity:1"
     width="272.31345"
     height="192.13091"
     id="rect4310" /><path
     style="fill:#f9e595;fill-opacity:1"
     d="m 386.52848,355.14006 -209.00012,0 0,8.76315 208.99948,0 c 2.40998,0 4.38125,-1.97191 4.38125,-4.38125 0,-2.40933 -1.97127,-4.3819 -4.38061,-4.3819 z"
     id="path4312"
     inkscape:connector-curvature="0" /><path
     style="fill:#ea4949;fill-opacity:1"
     d="m 122.75916,355.14006 c -2.40998,0 -4.38125,1.97192 -4.38125,4.38126 0,2.40933 1.97192,4.38125 4.38125,4.38125 l 54.55017,0 0,-8.76316 -54.55017,0 z"
     id="path4314"
     inkscape:connector-curvature="0" /><path
     style="fill:#bf1717;fill-opacity:1"
     d="m 178.40449,350.53978 c -1.97193,0 -3.50514,1.53386 -3.50514,3.50513 l 0,10.9541 c 0,1.97192 1.53386,3.50513 3.50514,3.50513 1.97127,0 3.50512,-1.53386 3.50512,-3.50513 l 0,-10.9541 c 6.5e-4,-1.97191 -1.53321,-3.50513 -3.50512,-3.50513 z"
     id="path4316"
     inkscape:connector-curvature="0" /><circle
     style="fill:#ea4949;fill-opacity:1"
     cx="254.64383"
     cy="239.46751"
     id="circle4318"
     r="63.31332" /><polygon
     style="fill:#edc92f;fill-opacity:1"
     points="311.269,231.248 227.857,164.45 227.857,297.706 "
     id="polygon4320"
     transform="matrix(0.64610706,0,0,0.64610706,90.116539,90.056554)" /><g
     id="g4322" /><g
     id="g4324" /><g
     id="g4326" /><g
     id="g4328" /><g
     id="g4330" /><g
     id="g4332" /><g
     id="g4334" /><g
     id="g4336" /><g
     id="g4338" /><g
     id="g4340" /><g
     id="g4342" /><g
     id="g4344" /><g
     id="g4346" /><g
     id="g4348" /><g
     id="g4350" /></svg>