<?xml version="1.0" encoding="UTF-8" standalone="no"?>
<!-- Generator: Adobe Illustrator 19.0.0, SVG Export Plug-In . SVG Version: 6.00 Build 0)  -->

<svg
   xmlns:dc="http://purl.org/dc/elements/1.1/"
   xmlns:cc="http://creativecommons.org/ns#"
   xmlns:rdf="http://www.w3.org/1999/02/22-rdf-syntax-ns#"
   xmlns:svg="http://www.w3.org/2000/svg"
   xmlns="http://www.w3.org/2000/svg"
   xmlns:sodipodi="http://sodipodi.sourceforge.net/DTD/sodipodi-0.dtd"
   xmlns:inkscape="http://www.inkscape.org/namespaces/inkscape"
   version="1.1"
   id="Layer_1"
   x="0px"
   y="0px"
   viewBox="0 0 509.287 509.287"
   style="enable-background:new 0 0 509.287 509.287;"
   xml:space="preserve"
   inkscape:version="0.91 r13725"
   sodipodi:docname="logo.svg"
   inkscape:export-filename="/home/henrique/git/magnet-player/assets/logo.svg.png"
   inkscape:export-xdpi="90"
   inkscape:export-ydpi="90"><metadata
     id="metadata4356"><rdf:RDF><cc:Work
         rdf:about=""><dc:format>image/svg+xml</dc:format><dc:type
           rdf:resource="http://purl.org/dc/dcmitype/StillImage" /></cc:Work></rdf:RDF></metadata><defs
     id="defs4354" /><sodipodi:namedview
     pagecolor="#ffffff"
     bordercolor="#666666"
     borderopacity="1"
     objecttolerance="10"
     gridtolerance="10"
     guidetolerance="10"
     inkscape:pageopacity="0"
     inkscape:pageshadow="2"
     inkscape:window-width="3102"
     inkscape:window-height="1752"
     id="namedview4352"
     showgrid="false"
     inkscape:zoom="2.6213464"
     inkscape:cx="266.73418"
     inkscape:cy="244.40343"
     inkscape:window-x="98"
     inkscape:window-y="48"
     inkscape:window-maximized="1"
     inkscape:current-layer="Layer_1" /><circle
     style="fill:#334d5c;fill-opacity:1"
     cx="254.644"
     cy="254.644"
     r="254.644"
     id="circle4306" /><path
     style="fill:#edc92f;fill-opacity:1"
     d="m 399.89192,124.23239 -290.49684,0 c -5.91511,0 -10.735067,4.81996 -10.735067,10.73507 l 0,239.01308 c 0,5.91511 4.819957,10.73507 10.735067,10.73507 l 290.49684,0 c 5.91511,0 10.73507,-4.81996 10.73507,-10.73507 l 0,-239.01308 c 0,-5.91511 -4.81996,-10.73507 -10.73507,-10.73507 z"
     id="path4308"
     inkscape:connector-curvature="0" /><rect
     x="118.37727"
     y="143.29254"
     style="fill:#e5ddd7;fill-opacity:1"
     width="272.31345"
     height="192.13091"
     id="rect4310" /><path
     style="fill:#f9e595;fill-opacity:1"
     d="m 386.52848,355.14006 -209.00012,0 0,8.76315 208.99948,0 c 2.40998,0 4.38125,-1.97191 4.38125,-4.38125 0,-2.40933 -1.97127,-4.3819 -4.38061,-4.3819 z"
     id="path4312"
     inkscape:connector-curvature="0" /><path
     style="fill:#ea4949;fill-opacity:1"
     d="m 122.75916,355.14006 c -2.40998,0 -4.38125,1.97192 -4.38125,4.38126 0,2.40933 1.97192,4.38125 4.38125,4.38125 l 54.55017,0 0,-8.76316 -54.55017,0 z"
     id="path4314"
     inkscape:connector-curvature="0" /><path
     style="fill:#bf1717;fill-opacity:1"
     d="m 178.40449,350.53978 c -1.97193,0 -3.50514,1.53386 -3.50514,3.50513 l 0,10.9541 c 0,1.97192 1.53386,3.50513 3.50514,3.50513 1.97127,0 3.50512,-1.53386 3.50512,-3.50513 l 0,-10.9541 c 6.5e-4,-1.97191 -1.53321,-3.50513 -3.50512,-3.50513 z"
     id="path4316"
     inkscape:connector-curvature="0" /><g
     id="g4322" /><g
     id="g4324" /><g
     id="g4326" /><g
     id="g4328" /><g
     id="g4330" /><g
     id="g4332" /><g
     id="g4334" /><g
     id="g4336" /><g
     id="g4338" /><g
     id="g4340" /><g
     id="g4342" /><g
     id="g4344" /><g
     id="g4346" /><g
     id="g4348" /><g
     id="g4350" /><g
     id="g4179"
     transform="matrix(2.4085539,0,0,2.4085539,176.02131,168.79543)"><path
       id="path3"
       d="M 58,41 26,41 C 19.373,41 14,35.627 14,29 l 0,0 C 14,22.373 19.373,17 26,17 L 58,17 58,3 26,3 C 11.641,3 0,14.641 0,29 l 0,0 c 0,14.359 11.641,26 26,26 l 32,0 0,-14 z"
       style="fill:#334d5c;fill-opacity:1"
       inkscape:connector-curvature="0" /><rect
       id="rect5"
       height="14"
       width="4"
       style="fill:#edc92f;fill-opacity:1"
       y="3"
       x="41" /><rect
       id="rect7"
       height="14"
       width="4"
       style="fill:#edc92f;fill-opacity:1"
       y="41"
       x="41" /><rect
       id="rect9"
       height="14"
       width="12.969"
       style="fill:#ea4949;fill-opacity:1"
       y="41"
       x="45.030998" /><rect
       id="rect11"
       height="14"
       width="12.969"
       style="fill:#ea4949;fill-opacity:1"
       y="3"
       x="45.030998" /><g
       id="g13" /><g
       id="g15" /><g
       id="g17" /><g
       id="g19" /><g
       id="g21" /><g
       id="g23" /><g
       id="g25" /><g
       id="g27" /><g
       id="g29" /><g
       id="g31" /><g
       id="g33" /><g
       id="g35" /><g
       id="g37" /><g
       id="g39" /><g
       id="g41" /></g></svg>