<?xml version="1.0" encoding="iso-8859-1"?>
<!-- Generator: Adobe Illustrator 19.0.0, SVG Export Plug-In . SVG Version: 6.00 Build 0)  -->
<svg version="1.1" id="Layer_1" xmlns="http://www.w3.org/2000/svg" xmlns:xlink="http://www.w3.org/1999/xlink" x="0px" y="0px"
	 viewBox="0 0 496.2 496.2" style="enable-background:new 0 0 496.2 496.2;" xml:space="preserve">
<path style="fill:#334D5C;" d="M496.2,248.1C496.2,111.1,385.1,0,248.1,0S0,111.1,0,248.1s111.1,248.1,248.1,248.1
	S496.2,385.1,496.2,248.1z"/>
<path style="fill:#E2BA13;" d="M188.4,94c-8.9,10.3-8.1,25.6,1.7,34c4,3.4,8.8,5.2,13.7,5.5c1.3,2.9,3.3,5.5,5.8,7.7
	c9.8,8.5,25,7,33.9-3.3c4.2-4.9,6.3-11,6.2-16.9c2.2-1.4,4.3-3.1,6.2-5.2c8.9-10.3,8.1-25.6-1.7-34s-25-7-33.9,3.3
	c-0.8,0.9-1.4,1.8-2.1,2.7C208.6,82.7,196.1,85,188.4,94z"/>
<path style="fill:#EDC92F;" d="M267.1,82.5c-10.8,0.7-19,9.6-18.4,19.9c0.3,4.1,1.9,7.9,4.5,10.8c-0.9,2.4-1.3,4.9-1.2,7.6
	c0.6,10.3,9.9,18.1,20.7,17.4c5.2-0.3,9.7-2.5,13-5.8c2,0.5,4.2,0.7,6.4,0.6c10.8-0.7,19-9.6,18.4-19.9s-9.9-18.1-20.7-17.4
	c-0.9,0.1-1.8,0.2-2.7,0.4C284.7,87.7,276.5,81.9,267.1,82.5z"/>
<path style="fill:#EFD35B;" d="M174.7,145.6c0-10.8-8.4-19.6-18.7-19.6c-4.2,0-8,1.4-11.1,3.8c-2.3-1.1-4.8-1.6-7.5-1.6
	c-10.3,0-18.7,8.8-18.7,19.6c0,5.2,1.9,9.9,5,13.4c-0.6,2-1,4.1-1,6.3c0,10.8,8.4,19.6,18.7,19.6s18.7-8.8,18.7-19.6
	c0-0.9-0.1-1.8-0.2-2.7C168.4,162.8,174.7,155,174.7,145.6z"/>
<path style="fill:#F9E595;" d="M195.7,155.9c10.8-0.6,19.1-9.5,18.5-19.8c-0.2-4.2-1.9-7.9-4.5-10.9c0.9-2.4,1.4-4.9,1.2-7.6
	c-0.6-10.3-9.8-18.1-20.6-17.5c-5.2,0.3-9.7,2.5-13,5.8c-2-0.5-4.2-0.8-6.4-0.6c-10.8,0.6-19.1,9.5-18.5,19.8s9.8,18.1,20.6,17.5
	c0.9-0.1,1.8-0.2,2.7-0.3C178.1,150.5,186.3,156.4,195.7,155.9z"/>
<g>
	<path style="fill:#EFD35B;" d="M359.7,177.7c10.8-0.6,19.1-9.5,18.5-19.8c-0.2-4.2-1.9-7.9-4.5-10.9c0.9-2.4,1.4-4.9,1.2-7.6
		c-0.6-10.3-9.8-18.1-20.6-17.5c-5.2,0.3-9.7,2.5-13,5.8c-2-0.5-4.2-0.8-6.4-0.6c-10.8,0.6-19.1,9.5-18.5,19.8s9.8,18.1,20.6,17.5
		c0.9-0.1,1.8-0.2,2.7-0.3C342.1,172.4,350.3,178.3,359.7,177.7z"/>
	<path style="fill:#EFD35B;" d="M204.2,174.1c10.8-0.6,19.1-9.5,18.5-19.8c-0.2-4.2-1.9-7.9-4.5-10.9c0.9-2.4,1.4-4.9,1.2-7.6
		c-0.6-10.3-9.8-18.1-20.6-17.5c-5.2,0.3-9.7,2.5-13,5.8c-2-0.5-4.2-0.8-6.4-0.6c-10.8,0.6-19.1,9.5-18.5,19.8s9.8,18.1,20.6,17.5
		c0.9-0.1,1.8-0.2,2.7-0.3C186.6,168.8,194.8,174.6,204.2,174.1z"/>
	<path style="fill:#EFD35B;" d="M249.1,152.2c10.8-0.6,19.1-9.5,18.5-19.8c-0.2-4.1-1.9-7.9-4.5-10.9c0.9-2.4,1.4-4.9,1.2-7.6
		c-0.6-10.3-9.8-18.1-20.6-17.5c-5.2,0.3-9.7,2.5-13,5.8c-2-0.5-4.2-0.8-6.4-0.6c-10.8,0.6-19.1,9.5-18.5,19.8s9.8,18.1,20.6,17.5
		c0.9-0.1,1.8-0.2,2.7-0.3C231.5,146.9,239.7,152.8,249.1,152.2z"/>
	<path style="fill:#EFD35B;" d="M343.9,141.2c6.1-8.9,4.2-20.9-4.2-26.7c-3.4-2.4-7.4-3.4-11.3-3.1c-1.3-2.2-3-4.1-5.2-5.6
		c-8.5-5.9-20.4-3.4-26.5,5.5c-2.9,4.2-4,9.2-3.4,13.8c-1.7,1.3-3.2,2.8-4.4,4.6c-6.1,8.9-4.2,20.9,4.3,26.7
		c8.5,5.9,20.4,3.4,26.5-5.5c0.5-0.8,1-1.5,1.4-2.3C328.9,151.8,338.6,149,343.9,141.2z"/>
	<path style="fill:#EFD35B;" d="M258.2,145.6c1.3-10.7-6-20.4-16.2-21.7c-4.1-0.5-8.1,0.5-11.5,2.5c-2.2-1.3-4.6-2.2-7.2-2.5
		c-10.2-1.2-19.6,6.5-20.9,17.2c-0.6,5.1,0.7,10,3.4,13.9c-0.9,1.9-1.5,4-1.8,6.2c-1.3,10.7,6,20.4,16.2,21.7
		c10.2,1.2,19.6-6.5,20.9-17.2c0.1-0.9,0.2-1.8,0.1-2.7C249.8,162,257.1,155,258.2,145.6z"/>
</g>
<path style="fill:#F9E595;" d="M231.1,161.3c-1.3,12.2,7.1,23,18.7,24.3c4.7,0.5,9.2-0.6,12.9-3c2.5,1.5,5.2,2.4,8.2,2.8
	c11.6,1.2,22-7.6,23.3-19.8c0.6-5.8-1-11.3-4-15.6c1-2.2,1.6-4.5,1.9-7c1.3-12.2-7.1-23-18.6-24.3c-11.6-1.2-22,7.6-23.3,19.8
	c-0.1,1-0.1,2.1-0.1,3.1C240.3,142.6,232.2,150.7,231.1,161.3z"/>
<path style="fill:#EFD35B;" d="M330.2,161.7c6.3-8.8,4.5-20.8-3.9-26.8c-3.4-2.4-7.3-3.5-11.3-3.3c-1.3-2.2-3-4.1-5.2-5.7
	c-8.4-6-20.3-3.6-26.6,5.2c-3,4.2-4.1,9.1-3.6,13.8c-1.7,1.2-3.2,2.8-4.5,4.6c-6.2,8.8-4.5,20.8,3.9,26.8s20.3,3.6,26.6-5.2
	c0.5-0.8,1-1.5,1.4-2.3C315,172.1,324.7,169.3,330.2,161.7z"/>
<g>
	<path style="fill:#E5DDD7;" d="M383.2,143.9c-0.7-0.7-1.7-1-2.7-0.8l-15.2-6.7l-16.9,13.5l-19.1-5.9l-14.8,13.1l-17.2-6.3
		L281.9,164l-16-6.5l-17.8,13.7l-19.3-14l-14.4,6.9l-18-13.8l-15.3,6.7l-16.8-13.5L148,150l-16.1-13.4l-16.1,6.5
		c-1-0.2-2,0.1-2.7,0.8s-1,1.7-0.9,2.7l40.6,243.7c0.2,1.1,1,2,2.1,2.4l92.4,28.2c0,0,0,0,0.1,0l0,0h0.1c0.1,0,0.2,0.1,0.3,0.1
		s0.2,0,0.3,0h0.1l0,0l0,0h0.1c0.1,0,0.2,0,0.3,0c0.1,0,0.2,0,0.3-0.1h0.1l0,0c0,0,0,0,0.1,0l92.4-28.2c1.1-0.3,1.9-1.3,2.1-2.4
		l40.5-243.8C384.2,145.6,383.9,144.6,383.2,143.9z"/>
	<path style="fill:#E5DDD7;" d="M248.1,418L248.1,418L248.1,418z"/>
	<path style="fill:#E5DDD7;" d="M248.1,418L248.1,418L248.1,418z"/>
	<polygon style="fill:#E5DDD7;" points="248.1,174.3 248.1,174.3 248.1,418 248.1,418 248.1,418 	"/>
</g>
<g>
	<polygon style="fill:#EA4949;" points="122.5,147.6 160.8,391.3 175.5,395.8 143.6,152.1 132.8,141.4 	"/>
	<polygon style="fill:#EA4949;" points="154.8,154.5 183.3,398.2 197.9,402.6 175.9,159 165.9,148.4 	"/>
	<polygon style="fill:#EA4949;" points="187.1,161.3 205.7,405 220.4,409.5 208.2,165.8 196.3,154.9 	"/>
	<polygon style="fill:#EA4949;" points="219.4,168.2 228.2,411.9 242.8,416.3 240.5,172.7 229.3,161.9 	"/>
</g>
<g>
	<polygon style="fill:#BF1717;" points="256.7,172.5 254.1,416.1 268.8,411.6 277.8,168 265.9,162.1 	"/>
	<polygon style="fill:#BF1717;" points="289,165.6 276.5,409.3 291.2,404.8 310.1,161.1 298.5,155.2 	"/>
	<polygon style="fill:#BF1717;" points="321.3,158.7 299,402.4 313.7,397.9 342.4,154.3 330.9,148.3 	"/>
	<polygon style="fill:#BF1717;" points="353.6,151.9 321.4,395.6 336.1,391.1 374.7,147.4 362.8,141.5 	"/>
</g>
<g>
</g>
<g>
</g>
<g>
</g>
<g>
</g>
<g>
</g>
<g>
</g>
<g>
</g>
<g>
</g>
<g>
</g>
<g>
</g>
<g>
</g>
<g>
</g>
<g>
</g>
<g>
</g>
<g>
</g>
</svg>
